Exact Audio Copy V1.0 beta 1 from 15. November 2010

EAC extraction logfile from 15. March 2011, 0:17

Ajattara / Kalmanto

Used drive  : HL-DT-STBD-RE  GGW-H20L   Adapter: 0  ID: 5

Read mode               : Secure
Utilize accurate stream : Yes
Defeat audio cache      : Yes
Make use of C2 pointers : No

Read offset correction                      : 667
Overread into Lead-In and Lead-Out          : No
Fill up missing offset samples with silence : Yes
Delete leading and trailing silent blocks   : No
Null samples used in CRC calculations       : Yes
Used interface                              : Native Win32 interface for Win NT & 2000
Gap handling                                : Appended to previous track

Used output format              : User Defined Encoder
Selected bitrate                : 320 kBit/s
Quality                         : High
Add ID3 tag                     : No
Command line compressor         : C:\Program Files (x86)\Exact Audio Copy\Flac\flac.exe
Additional command line options : -V -8 -T "artist=%a" -T "title=%t" -T "album=%g" -T "date=%y" -T "tracknumber=%n" -T "genre=%m" %s


TOC of the extracted CD

     Track |   Start  |  Length  | Start sector | End sector 
    ---------------------------------------------------------
        1  |  0:00.00 |  4:05.63 |         0    |    18437   
        2  |  4:05.63 |  3:10.30 |     18438    |    32717   
        3  |  7:16.18 |  4:09.67 |     32718    |    51459   
        4  | 11:26.10 |  3:55.39 |     51460    |    69123   
        5  | 15:21.49 |  4:06.50 |     69124    |    87623   
        6  | 19:28.24 |  4:13.22 |     87624    |   106620   
        7  | 23:41.46 |  3:19.55 |    106621    |   121600   
        8  | 27:01.26 |  5:01.37 |    121601    |   144212   
        9  | 32:02.63 |  4:45.72 |    144213    |   165659   


Track  1

     Filename C:\EACrips\Ajattara - 2007 - Kalmanto\01 - Ilkitie.wav

     Pre-gap length  0:00:02.00

     Peak level 97.7 %
     Extraction speed 1.1 X
     Track quality 100.0 %
     Test CRC 8138F59D
     Copy CRC 8138F59D
     Accurately ripped (confidence 4)  [61C8A705]
     Copy OK

Track  2

     Filename C:\EACrips\Ajattara - 2007 - Kalmanto\02 - Turhuuden takila.wav

     Peak level 97.7 %
     Extraction speed 1.1 X
     Track quality 100.0 %
     Test CRC E93E9734
     Copy CRC E93E9734
     Accurately ripped (confidence 4)  [3C015985]
     Copy OK

Track  3

     Filename C:\EACrips\Ajattara - 2007 - Kalmanto\03 - Madot.wav

     Pre-gap length  0:00:02.86

     Peak level 97.7 %
     Extraction speed 1.3 X
     Track quality 100.0 %
     Test CRC 32A7C2E7
     Copy CRC 32A7C2E7
     Accurately ripped (confidence 4)  [DED1344E]
     Copy OK

Track  4

     Filename C:\EACrips\Ajattara - 2007 - Kalmanto\04 - ...Putoan.wav

     Peak level 97.7 %
     Extraction speed 1.4 X
     Track quality 100.0 %
     Test CRC D30B29B8
     Copy CRC D30B29B8
     Accurately ripped (confidence 4)  [6E302A89]
     Copy OK

Track  5

     Filename C:\EACrips\Ajattara - 2007 - Kalmanto\05 - Harhojen virta.wav

     Peak level 97.7 %
     Extraction speed 1.4 X
     Track quality 100.0 %
     Test CRC 0ABF22DC
     Copy CRC 0ABF22DC
     Accurately ripped (confidence 4)  [928AA625]
     Copy OK

Track  6

     Filename C:\EACrips\Ajattara - 2007 - Kalmanto\06 - Suruntuoja.wav

     Peak level 97.7 %
     Extraction speed 1.4 X
     Track quality 100.0 %
     Test CRC D9C26B44
     Copy CRC D9C26B44
     Accurately ripped (confidence 4)  [6026783C]
     Copy OK

Track  7

     Filename C:\EACrips\Ajattara - 2007 - Kalmanto\07 - Naimalaulu.wav

     Peak level 97.7 %
     Extraction speed 1.4 X
     Track quality 100.0 %
     Test CRC 3BD88BD3
     Copy CRC 3BD88BD3
     Accurately ripped (confidence 4)  [26979D35]
     Copy OK

Track  8

     Filename C:\EACrips\Ajattara - 2007 - Kalmanto\08 - Alttarilla aamutähden.wav

     Peak level 97.7 %
     Extraction speed 0.9 X
     Track quality 99.9 %
     Test CRC 3BF4FCB7
     Copy CRC 3BF4FCB7
     Accurately ripped (confidence 4)  [369FF20E]
     Copy OK

Track  9

     Filename C:\EACrips\Ajattara - 2007 - Kalmanto\09 - Kalmanto.wav

     Peak level 97.7 %
     Extraction speed 1.1 X
     Track quality 100.0 %
     Test CRC 7B7E8EFD
     Copy CRC 7B7E8EFD
     Accurately ripped (confidence 4)  [EB271468]
     Copy OK


All tracks accurately ripped

No errors occurred

End of status report

==== Log checksum 56FA15945C33F1CE8415DE725A9882DD39CF198BD31FAC91F17136EECAA57F1F ====
